{
  "accessors": [
    {
      "bufferView": 2,
      "componentType": 5126,
      "count": 1206,
      "max": [
        0.06369899958372116,
        1.101559042930603,
        1.0913870334625244
      ],
      "min": [
        -0.06369899958372116,
        -1.101559042930603,
        -1.0913859605789185
      ],
      "type": "VEC3"
    },
    {
      "bufferView": 2,
      "byteOffset": 14472,
      "componentType": 5126,
      "count": 1206,
      "max": [
        1.0,
        1.0,
        1.0
      ],
      "min": [
        -1.0,
        -1.0,
        -1.0
      ],
      "type": "VEC3"
    },
    {
      "bufferView": 1,
      "componentType": 5126,
      "count": 1206,
      "max": [
        0.864637017250061,
        0.6516199707984924
      ],
      "min": [
        0.5108775496482849,
        0.015296000055968761
      ],
      "type": "VEC2"
    },
    {
      "bufferView": 0,
      "componentType": 5125,
      "count": 4896,
      "type": "SCALAR"
    },
    {
      "bufferView": 2,
      "byteOffset": 28944,
      "componentType": 5126,
      "count": 2538,
      "max": [
        1.3210810422897339,
        0.0655670017004013,
        1.3210810422897339
      ],
      "min": [
        -1.321079969406128,
        -1.774772047996521,
        -1.321079969406128
      ],
      "type": "VEC3"
    },
    {
      "bufferView": 2,
      "byteOffset": 59400,
      "componentType": 5126,
      "count": 2538,
      "max": [
        1.0,
        0.9999982118606567,
        1.0
      ],
      "min": [
        -1.0,
        -1.0,
        -1.0
      ],
      "type": "VEC3"
    },
    {
      "bufferView": 1,
      "byteOffset": 9648,
      "componentType": 5126,
      "count": 2538,
      "max": [
        0.9794560074806213,
        0.9960334897041321
      ],
      "min": [
        0.005949970334768295,
        0.00979399960488081
      ],
      "type": "VEC2"
    },
    {
      "bufferView": 0,
      "byteOffset": 19584,
      "componentType": 5125,
      "count": 12384,
      "type": "SCALAR"
    },
    {
      "bufferView": 2,
      "byteOffset": 89856,
      "componentType": 5126,
      "count": 1087,
      "max": [
        0.9755489826202393,
        0.9755489826202393,
        0.9755489826202393
      ],
      "min": [
        -0.9755480289459229,
        -0.9755489826202393,
        -0.9755480289459229
      ],
      "type": "VEC3"
    },
    {
      "bufferView": 2,
      "byteOffset": 102900,
      "componentType": 5126,
      "count": 1087,
      "max": [
        1.0,
        1.0,
        1.0
      ],
      "min": [
        -1.0,
        -1.0,
        -1.0
      ],
      "type": "VEC3"
    },
    {
      "bufferView": 3,
      "componentType": 5126,
      "count": 1087,
      "max": [
        1.0,
        0.049124401062726974,
        1.0,
        1.0
      ],
      "min": [
        -1.0,
        -0.04912536218762398,
        -1.0,
        1.0
      ],
      "type": "VEC4"
    },
    {
      "bufferView": 1,
      "byteOffset": 29952,
      "componentType": 5126,
      "count": 1087,
      "max": [
        1.0,
        1.0
      ],
      "min": [
        0.0,
        0.0
      ],
      "type": "VEC2"
    },
    {
      "bufferView": 0,
      "byteOffset": 69120,
      "componentType": 5125,
      "count": 5952,
      "type": "SCALAR"
    },
    {
      "bufferView": 4,
      "componentType": 5126,
      "count": 358,
      "max": [
        7.5
      ],
      "min": [
        0.0416666679084301
      ],
      "type": "SCALAR"
    },
    {
      "bufferView": 5,
      "componentType": 5126,
      "count": 358,
      "max": [
        8.146033536604591e-08,
        8.146014351950726e-08,
        0.999997615814209,
        1.0
      ],
      "min": [
        -4.0502939668840554e-08,
        -7.01032334404772e-08,
        -0.8605812191963196,
        -0.4972105920314789
      ],
      "type": "VEC4"
    },
    {
      "bufferView": 4,
      "byteOffset": 1432,
      "componentType": 5126,
      "count": 358,
      "max": [
        7.5
      ],
      "min": [
        0.0416666679084301
      ],
      "type": "SCALAR"
    },
    {
      "bufferView": 5,
      "byteOffset": 5728,
      "componentType": 5126,
      "count": 358,
      "max": [
        0.9999957084655762,
        0.5003317594528198,
        0.500976026058197,
        1.0
      ],
      "min": [
        8.146033536604591e-08,
        -0.4990067183971405,
        -0.499666303396225,
        9.157313797913957e-06
      ],
      "type": "VEC4"
    }
  ],
  "animations": [
    {
      "channels": [
        {
          "sampler": 0,
          "target": {
            "node": 4,
            "path": "rotation"
          }
        },
        {
          "sampler": 1,
          "target": {
            "node": 8,
            "path": "rotation"
          }
        }
      ],
      "name": "Scene",
      "samplers": [
        {
          "input": 13,
          "interpolation": "LINEAR",
          "output": 14
        },
        {
          "input": 15,
          "interpolation": "LINEAR",
          "output": 16
        }
      ]
    }
  ],
  "asset": {
    "extras": {
      "author": "Vinny Passmore (https://sketchfab.com/HPrendering)",
      "license": "CC-BY-4.0 (http://creativecommons.org/licenses/by/4.0/)",
      "source": "https://sketchfab.com/3d-models/globe-globechallenge-cf359930f8604a04b194b0f7de74f77b",
      "title": "Globe #GlobeChallenge"
    },
    "generator": "Sketchfab-12.65.0",
    "version": "2.0"
  },
  "bufferViews": [
    {
      "buffer": 0,
      "byteLength": 92928,
      "name": "floatBufferViews",
      "target": 34963
    },
    {
      "buffer": 0,
      "byteLength": 38648,
      "byteOffset": 92928,
      "byteStride": 8,
      "name": "floatBufferViews",
      "target": 34962
    },
    {
      "buffer": 0,
      "byteLength": 115944,
      "byteOffset": 131576,
      "byteStride": 12,
      "name": "floatBufferViews",
      "target": 34962
    },
    {
      "buffer": 0,
      "byteLength": 17392,
      "byteOffset": 247520,
      "byteStride": 16,
      "name": "floatBufferViews",
      "target": 34962
    },
    {
      "buffer": 0,
      "byteLength": 2864,
      "byteOffset": 264912,
      "name": "floatBufferViews"
    },
    {
      "buffer": 0,
      "byteLength": 11456,
      "byteOffset": 267776,
      "byteStride": 16,
      "name": "floatBufferViews"
    }
  ],
  "buffers": [
    {
      "byteLength": 279232,
      "uri": "scene.bin"
    }
  ],
  "extensionsUsed": [
    "KHR_materials_clearcoat"
  ],
  "images": [
    {
      "uri": "textures/Material.003_baseColor.png"
    },
    {
      "uri": "textures/Material.003_metallicRoughness.png"
    },
    {
      "uri": "textures/Material.003_clearcoat.png"
    },
    {
      "uri": "textures/Material.003_clearcoat_normal.png"
    },
    {
      "uri": "textures/Material.001_metallicRoughness.png"
    },
    {
      "uri": "textures/Material.001_clearcoat.png"
    },
    {
      "uri": "textures/Material.001_clearcoat_normal.png"
    },
    {
      "uri": "textures/Material.002_baseColor.png"
    },
    {
      "uri": "textures/Material.002_normal.png"
    }
  ],
  "materials": [
    {
      "doubleSided": true,
      "extensions": {
        "KHR_materials_clearcoat": {
          "clearcoatFactor": 0.05625,
          "clearcoatNormalTexture": {
            "index": 3
          },
          "clearcoatRoughnessFactor": 0.15928030303030302,
          "clearcoatTexture": {
            "index": 2
          }
        }
      },
      "name": "Material.003",
      "pbrMetallicRoughness": {
        "baseColorTexture": {
          "index": 0
        },
        "metallicRoughnessTexture": {
          "index": 1
        },
        "roughnessFactor": 0.34375
      }
    },
    {
      "doubleSided": true,
      "extensions": {
        "KHR_materials_clearcoat": {
          "clearcoatFactor": 0.03806818181818182,
          "clearcoatNormalTexture": {
            "index": 6,
            "scale": 0.7471590909090909
          },
          "clearcoatRoughnessFactor": 0.4744318181818182,
          "clearcoatTexture": {
            "index": 5
          }
        }
      },
      "name": "Material.001",
      "occlusionTexture": {
        "index": 4,
        "strength": 0.6077651515151515
      },
      "pbrMetallicRoughness": {
        "baseColorTexture": {
          "index": 0
        },
        "metallicRoughnessTexture": {
          "index": 4
        },
        "roughnessFactor": 0.6441287878787879
      }
    },
    {
      "doubleSided": true,
      "extensions": {
        "KHR_materials_clearcoat": {
          "clearcoatFactor": 1.0,
          "clearcoatNormalTexture": {
            "index": 8,
            "scale": 0.0986742424
          },
          "clearcoatRoughnessFactor": 0.0
        }
      },
      "name": "Material.002",
      "normalTexture": {
        "index": 8,
        "scale": 0.0986742424
      },
      "pbrMetallicRoughness": {
        "baseColorTexture": {
          "index": 7
        },
        "metallicFactor": 0.29261363636363635,
        "roughnessFactor": 0.0
      }
    }
  ],
  "meshes": [
    {
      "name": "pCylinder9.000_Material.003_0",
      "primitives": [
        {
          "attributes": {
            "NORMAL": 1,
            "POSITION": 0,
            "TEXCOORD_0": 2
          },
          "indices": 3,
          "material": 0,
          "mode": 4
        }
      ]
    },
    {
      "name": "pCylinder9.001_Material.001_0",
      "primitives": [
        {
          "attributes": {
            "NORMAL": 5,
            "POSITION": 4,
            "TEXCOORD_0": 6
          },
          "indices": 7,
          "material": 1,
          "mode": 4
        }
      ]
    },
    {
      "name": "Globe_Material.002_0",
      "primitives": [
        {
          "attributes": {
            "NORMAL": 9,
            "POSITION": 8,
            "TANGENT": 10,
            "TEXCOORD_0": 11
          },
          "indices": 12,
          "material": 2,
          "mode": 4
        }
      ]
    }
  ],
  "nodes": [
    {
      "children": [
        1
      ],
      "matrix": [
        1.0,
        0.0,
        0.0,
        0.0,
        0.0,
        2.220446049250313e-16,
        -1.0,
        0.0,
        0.0,
        1.0,
        2.220446049250313e-16,
        0.0,
        0.0,
        -0.034706007689237595,
        -1.363354567730173e-05,
        1.0
      ],
      "name": "Sketchfab_model"
    },
    {
      "children": [
        2
      ],
      "matrix": [
        1.0,
        0.0,
        0.0,
        0.0,
        0.0,
        0.0,
        1.0,
        0.0,
        0.0,
        -1.0,
        0.0,
        0.0,
        0.0,
        0.0,
        0.0,
        1.0
      ],
      "name": "036e023aa5a246e8a0e32ffc7cb213e0.fbx"
    },
    {
      "children": [
        3
      ],
      "name": "Object_2"
    },
    {
      "children": [
        4,
        6,
        8
      ],
      "name": "RootNode"
    },
    {
      "children": [
        5
      ],
      "name": "pCylinder9.000",
      "rotation": [
        8.146033536604591e-08,
        0.0,
        0.0,
        1.0
      ],
      "scale": [
        100.0,
        100.0,
        100.0
      ]
    },
    {
      "mesh": 0,
      "name": "pCylinder9.000_Material.003_0"
    },
    {
      "children": [
        7
      ],
      "name": "pCylinder9.001",
      "rotation": [
        8.146033536604591e-08,
        0.0,
        0.0,
        1.0
      ],
      "scale": [
        100.0,
        100.0,
        100.0
      ]
    },
    {
      "mesh": 1,
      "name": "pCylinder9.001_Material.001_0"
    },
    {
      "children": [
        9
      ],
      "name": "Globe",
      "rotation": [
        8.146033536604591e-08,
        0.0,
        0.0,
        1.0
      ],
      "scale": [
        100.0,
        100.0,
        100.0
      ]
    },
    {
      "mesh": 2,
      "name": "Globe_Material.002_0"
    }
  ],
  "samplers": [
    {
      "magFilter": 9729,
      "minFilter": 9987,
      "wrapS": 10497,
      "wrapT": 10497
    }
  ],
  "scene": 0,
  "scenes": [
    {
      "name": "Sketchfab_Scene",
      "nodes": [
        0
      ]
    }
  ],
  "textures": [
    {
      "sampler": 0,
      "source": 0
    },
    {
      "sampler": 0,
      "source": 1
    },
    {
      "sampler": 0,
      "source": 2
    },
    {
      "sampler": 0,
      "source": 3
    },
    {
      "sampler": 0,
      "source": 4
    },
    {
      "sampler": 0,
      "source": 5
    },
    {
      "sampler": 0,
      "source": 6
    },
    {
      "sampler": 0,
      "source": 7
    },
    {
      "sampler": 0,
      "source": 8
    }
  ]
}
